<svg xmlns="http://www.w3.org/2000/svg" viewBox="0 0 142.29 92.59"><defs><style>.cls-1{fill:#666cfe;}</style></defs><g id="Layer_2" data-name="Layer 2"><g id="_4" data-name="#4"><path class="cls-1" d="M50.88,25.32C50.23,2.14,20.81-9.28,5.65,9.18-9.06,27.09,7.05,54.38,29.8,50.43c12.28-2.14,20.73-12.89,21.08-25.11,0-1.94-3-1.93-3,0-.35,12.25-10,22.5-22.5,22.5a22.72,22.72,0,0,1-22.5-22.5,22.7,22.7,0,0,1,22.5-22.5c12.51,0,22.15,10.24,22.5,22.5C47.93,27.24,50.93,27.25,50.88,25.32Z"/><path class="cls-1" d="M26.88,91.14V49.32a1.5,1.5,0,0,0-3,0V91.14a1.5,1.5,0,0,0,3,0Z"/><path class="cls-1" d="M40.69,72.35H8.79a1.5,1.5,0,0,0,0,3h31.9a1.5,1.5,0,0,0,0-3Z"/><path class="cls-1" d="M122.21,56.46c-.29-11.56-7.07-22.05-18-26.28a28.42,28.42,0,0,0-31.83,8.24c-16.48,19.87,1.38,50.4,26.77,45.75,13.45-2.46,22.73-14.27,23.07-27.71.05-1.93-2.95-1.93-3,0C118.86,70.21,108,81.62,94,81.65a25.19,25.19,0,1,1,0-50.38c14,0,24.84,11.47,25.19,25.19C119.26,58.39,122.26,58.39,122.21,56.46Z"/><path class="cls-1" d="M115.73,10.76h25.06L139.73,8.2,112.05,36.76c-1.34,1.38.78,3.51,2.12,2.12l27.68-28.56a1.52,1.52,0,0,0-1.06-2.56H115.73a1.5,1.5,0,0,0,0,3Z"/><path class="cls-1" d="M139.29,9.26V35.9a1.5,1.5,0,0,0,3,0V9.26a1.5,1.5,0,0,0-3,0Z"/></g></g></svg>