<svg xmlns="http://www.w3.org/2000/svg" viewBox="0 0 112.7 105.49"><defs><style>.cls-1{fill:#666cfe;}</style></defs><g id="Layer_2" data-name="Layer 2"><g id="_4" data-name="#4"><path class="cls-1" d="M44.66,2.65c9.27,15.79,18.52,31.61,27.55,47.54,6,10.6,11.72,21.76,20.56,30.35,2.87,2.78,6.21,4.35,9.57,6.43,2.19,1.36,6.63,3.76,7.18,6.58,1,5.41-7.6,6.43-10.46,3.22-1.29-1.44-3.41.69-2.12,2.12,4.74,5.32,17.86,2,15.47-6.14-2.18-7.45-13.16-9.9-18.21-15-8.48-8.61-14-19.52-19.89-29.92q-8-14.1-16.2-28.08Q52.7,10.42,47.25,1.14a1.5,1.5,0,0,0-2.59,1.51Z"/><path class="cls-1" d="M94.28,89.41a21.19,21.19,0,0,1,2.19,7.84c.1,1.93-.27,4.49-2.41,5.18a4.38,4.38,0,0,1-4.69-2c-1-1.62-3.64-.12-2.59,1.52,2.91,4.54,9.84,4.94,12.07-.46,1.76-4.24-.09-9.71-2-13.63-.84-1.74-3.43-.22-2.59,1.51Z"/><path class="cls-1" d="M85.65,89.06a24.64,24.64,0,0,1,1.66,8.85c-.07,2.13-1,4.37-3.68,3.63a2.92,2.92,0,0,1-1.92-2.7c-.12-1.92-3.13-1.94-3,0,.33,5,6.78,8.26,10.25,3.77,2.88-3.74,1-10.35-.41-14.35-.64-1.81-3.54-1-2.9.8Z"/><path class="cls-1" d="M77.52,89.94c1.11,2.17,2.2,5.2,1.57,7.63-.41,1.57-2.61,3.49-4.2,2.25a3.49,3.49,0,0,1-1-2.1c-.35-1.89-3.24-1.09-2.89.8.89,4.83,6.32,6.1,9.61,2.49,3.08-3.36,1.36-9-.48-12.58-.89-1.72-3.48-.2-2.59,1.51Z"/><path class="cls-1" d="M68.51,89.41a24.39,24.39,0,0,1,1.95,3.16c.32.63,1.22,2.09,1.11,2.83-.59,4.25-5.72,1.3-7.06-.36a14.81,14.81,0,0,0-5.06-4.61C52,85.9,44.54,81.18,36.58,77.6c-8.38-3.78-18.24-8.48-23.79-16.1-6-8.27,2.7-20.35,8.84-26.4a1.54,1.54,0,0,0,.24-1.82L2.81.72A1.5,1.5,0,0,0,.22,2.24L19.28,34.8,19.51,33C14,38.42,7.26,47.83,7.48,55.89c.25,9,11.19,15.57,18,19.48,7.67,4.39,15.8,7.8,23.45,12.28,3.72,2.18,7.8,4.21,11.27,6.77,1.46,1.08.26.17,1,1.17a11.21,11.21,0,0,0,4.46,4c3.11,1.44,8.28,1.52,9-2.69.5-3.07-1.82-6.64-3.53-9-1.12-1.55-3.72-.05-2.59,1.51Z"/><path class="cls-1" d="M28.42,33.33c-5.85,5-2.61,12.54,2.21,16.86,1.43,1.28,3.56-.83,2.12-2.12-3.63-3.26-6.76-8.7-2.21-12.62,1.47-1.26-.66-3.37-2.12-2.12Z"/></g></g></svg>