<svg xmlns="http://www.w3.org/2000/svg" viewBox="0 0 53.56 37.47"><defs><style>.cls-1{fill:#020202;}</style></defs><g id="Layer_2" data-name="Layer 2"><g id="_10" data-name="#10"><path class="cls-1" d="M52.9,8.13a9.24,9.24,0,0,0-1.59-4.58c-1.52-2-3.68-2.62-6-2.84A220.8,220.8,0,0,0,20.73.07,103.82,103.82,0,0,0,7,.88,6.8,6.8,0,0,0,.86,6.94C.58,8.66.44,10.39.22,12.12c0,.25-.22,7.42-.22,10.76v.63c0,.35.26,2.78.4,3.65.2,1.2.27,2.42.51,3.61.74,3.6,3,5.53,7,5.92a209,209,0,0,0,24.64.71c4.32-.1,8.64-.16,12.94-.67,4.82-.57,6.87-2.62,7.45-7.45A85.53,85.53,0,0,0,52.9,8.13ZM21.49,26.73v-16l13.9,8Z"/></g></g></svg>