<svg xmlns="http://www.w3.org/2000/svg" viewBox="0 0 39.61 39.37"><defs><style>.cls-1{fill:#020202;}</style></defs><g id="Layer_2" data-name="Layer 2"><g id="_10" data-name="#10"><path class="cls-1" d="M39.59,19A19.82,19.82,0,0,0,25.4.81,18.75,18.75,0,0,0,21.91.12c-.48,0-1-.09-1.45-.1,0,0-.05,0-.07,0H19s0,0,0,0A19.77,19.77,0,0,0,2.16,10.81,19.88,19.88,0,0,0,0,19.4,19.8,19.8,0,0,0,11.1,37.6a19.59,19.59,0,0,0,5.22,1.7l.16,0c.15,0,.15,0,.15-.12V26c0-.12,0-.15-.15-.15H11.67c-.1,0-.13,0-.13-.12V20.19c0-.1,0-.12.12-.12h4.83c.11,0,.14,0,.14-.13,0-.85,0-1.71,0-2.56s0-1.76.06-2.64a8.48,8.48,0,0,1,1.81-4.63A5.94,5.94,0,0,1,21.94,8a10.73,10.73,0,0,1,2.32-.27,17.47,17.47,0,0,1,4.33.47c.09,0,.11.05.11.14V13c0,.09,0,.12-.12.12H26.14a3.38,3.38,0,0,0-3.29,2.92,3.11,3.11,0,0,0,0,.43v3.35c0,.11,0,.13.13.13h5.24c.12,0,.14,0,.12.14-.29,1.72-.57,3.45-.85,5.17,0,.12,0,.23-.05.35s0,.12-.14.12H22.91q-.11,0-.09.09v13.4c0,.15,0,.15.16.13a19.73,19.73,0,0,0,10.4-5.14,19.53,19.53,0,0,0,4.18-5.65,19,19,0,0,0,1.68-5,19.6,19.6,0,0,0,.34-2.95s0-.05,0-.06V19S39.59,19.05,39.59,19Z"/></g></g></svg>