<svg xmlns="http://www.w3.org/2000/svg" viewBox="0 0 40.1 40.1"><defs><style>.cls-1{fill:#020202;}</style></defs><g id="Layer_2" data-name="Layer 2"><g id="_10" data-name="#10"><path class="cls-1" d="M40,12.07a14.88,14.88,0,0,0-1.46-5.83A10.82,10.82,0,0,0,30.67.48,35.76,35.76,0,0,0,25.3.07C25.17.07,23.5,0,22.79,0h-7c-.26,0-1,.07-1.17.08a35.13,35.13,0,0,0-5,.38,10.87,10.87,0,0,0-9,8.77A19.41,19.41,0,0,0,.09,13.1C0,17.74,0,22.37.1,27a15.8,15.8,0,0,0,1.33,6.5,10.8,10.8,0,0,0,8,6.11,36.71,36.71,0,0,0,6.2.42c4.43.14,8.85,0,13.27-.17a11.22,11.22,0,0,0,10.73-9.43A27.45,27.45,0,0,0,40,26.82c0-.12-.08-.27.08-.35V13.78A8.18,8.18,0,0,1,40,12.07ZM36.87,26.84a13.81,13.81,0,0,1-.76,4.64,7.59,7.59,0,0,1-6.64,5.14,85.44,85.44,0,0,1-9.73.34c-2.82,0-5.64-.09-8.45-.24a8.11,8.11,0,0,1-7.77-6.93A34,34,0,0,1,3.18,25q-.12-5.89,0-11.78A13.65,13.65,0,0,1,4,8.57a7.62,7.62,0,0,1,6.63-5.1,82.93,82.93,0,0,1,9.46-.34c2.91,0,5.82.08,8.72.24a8.1,8.1,0,0,1,7.77,6.93,32.09,32.09,0,0,1,.33,4.8Q37,21,36.87,26.84Z"/><path class="cls-1" d="M20,10.26a9.79,9.79,0,1,0,9.8,9.79A9.8,9.8,0,0,0,20,10.26ZM20,26.7a6.66,6.66,0,1,1,6.67-6.62A6.65,6.65,0,0,1,20,26.7Z"/><path class="cls-1" d="M30.86,7.13A2.35,2.35,0,1,0,33.2,9.46,2.34,2.34,0,0,0,30.86,7.13Z"/></g></g></svg>