<svg xmlns="http://www.w3.org/2000/svg" viewBox="0 0 128.12 47.2"><defs><style>.cls-1{fill:#e9f8ff;}</style></defs><g id="Layer_2" data-name="Layer 2"><g id="_1" data-name="#1"><path class="cls-1" d="M67.57,47.2h-58a12.33,12.33,0,0,1-4.18-.54c-3-1-4.52-3.32-5.18-6.28a13.54,13.54,0,0,1-.25-3Q0,19.61,0,1.83C0,.48.37.1,1.72,0c.77,0,1.09.24,1.09,1,0,2.24,0,4.48,0,6.73q0,14.9,0,29.79a8.05,8.05,0,0,0,.48,3.37,5.67,5.67,0,0,0,5.59,3.49c1.59,0,3.17,0,4.76,0H126.43A1.61,1.61,0,0,1,128,46.74a.62.62,0,0,1-.6.44H67.57Z"/><path class="cls-1" d="M67.15,24c0-4.78,0-9.56,0-14.34,0-.69-.16-.93-.89-.91-2.49,0-5,0-7.46,0-.53,0-1-.07-1.2-.63a2.12,2.12,0,0,1,.09-1.9c.2-.31.54-.28.86-.28,2.56,0,5.12,0,7.69,0,.68,0,.94-.13.91-.87-.07-1.22,0-2.44,0-3.66,0-.52.08-1,.63-1.2A2.1,2.1,0,0,1,69.61.19c.32.16.31.47.31.76,0,1.37,0,2.74,0,4.1,0,.72.15,1,.91.94,8,0,16,0,24,0,1.46,0,2.93,0,4.39,0,.55,0,.77-.13.75-.73,0-1.29,0-2.59,0-3.88a1,1,0,0,1,.63-1.12,2.16,2.16,0,0,1,1.84-.09c.31.16.28.48.28.78V5c0,1,0,1,1,1l21.81,0A13,13,0,0,1,127,6c.82.09,1.07.62,1,1.86,0,.8-.51.88-1.14.88H103.71c-1,0-1,0-1,1V38.36c0,1-.28,1.33-1.26,1.38-1.25.06-1.49-.17-1.49-1.42,0-9.56,0-19.12,0-28.69,0-.72-.23-.87-.91-.87-9.39,0-18.79,0-28.18,0-1,0-1,0-1,.93V38.18a1.52,1.52,0,0,1-2.33,1.45c-.49-.22-.44-.64-.44-1.06V24Z"/><path class="cls-1" d="M91,34.49a13.78,13.78,0,0,1-3,2.81c-2.54,1.71-5.27,2.76-8.4,2.26a5.84,5.84,0,0,1-4.76-3.12,6.2,6.2,0,0,1,3-8.28A14.84,14.84,0,0,1,85.52,27c1.65.08,3.31.13,5,.31.24,0,.5.07.51-.31,0-2,0-4-1-5.83a3.19,3.19,0,0,0-2.75-1.67,13.41,13.41,0,0,0-8.66,2.34c-1,.69-1.39.63-2-.21a1.15,1.15,0,0,1,.28-1.82A14.08,14.08,0,0,1,80.72,18a19.39,19.39,0,0,1,6.63-.93,6,6,0,0,1,5.77,4.73,13.89,13.89,0,0,1,.48,3.69c0,3.07,0,6.14,0,9.22A3.26,3.26,0,0,0,94.29,37a1.76,1.76,0,0,0,1,.66c.57.1.94.41.87,1s-.3,1.19-1.05,1.28a3,3,0,0,1-2.93-1.54A7.46,7.46,0,0,1,91,34.49ZM81,37.3a10,10,0,0,0,1.24-.12A14.45,14.45,0,0,0,90.35,32a2.4,2.4,0,0,0,.66-1.8c0-.49-.2-.6-.65-.62-1.07,0-2.14-.18-3.21-.2-2.3-.06-4.62-.33-6.89.36A4.21,4.21,0,0,0,77,34.26C77.19,36.09,78.77,37.27,81,37.3Z"/><path class="cls-1" d="M23.15,37.35a12.93,12.93,0,0,0,7-2.57,1.37,1.37,0,0,1,1.93.32,1,1,0,0,1-.22,1.55,14,14,0,0,1-3.79,2,13.79,13.79,0,0,1-7.51.93,7.55,7.55,0,0,1-6.41-6.11,14,14,0,0,1,6.11-15.11,8.65,8.65,0,0,1,9.56-.14,4.65,4.65,0,0,1,2.41,4.92,5.46,5.46,0,0,1-2.58,3.41A22.5,22.5,0,0,1,20.14,30a23.53,23.53,0,0,1-2.77.24c-.55,0-.71.21-.72.73A5.93,5.93,0,0,0,23.15,37.35Zm2-18a11.91,11.91,0,0,0-1.59.2c-3.52.88-6.07,5-6.65,7.82-.09.42,0,.54.5.52a25,25,0,0,0,8.34-2,8.54,8.54,0,0,0,3-1.83,2.2,2.2,0,0,0,0-3.3A4.74,4.74,0,0,0,25.16,19.31Z"/><path class="cls-1" d="M119.58,17.15a7.24,7.24,0,0,1,5.89,2.73,4.21,4.21,0,0,1-.23,5.56,13,13,0,0,1-5,3.18,24,24,0,0,1-8.76,1.84c-.61,0-.76.21-.76.8,0,4.24,3.19,6.9,7.43,6.26a15.45,15.45,0,0,0,5.91-2.4,1.5,1.5,0,0,1,1.2-.4,1.39,1.39,0,0,1,1.12,1,1.14,1.14,0,0,1-.63,1.28,18,18,0,0,1-7.16,2.8,12,12,0,0,1-4.15-.07,7.86,7.86,0,0,1-6.29-6.44,14.23,14.23,0,0,1,6-14.62A8.83,8.83,0,0,1,119.58,17.15Zm-8,10.91a26.59,26.59,0,0,0,7.49-1.67,12.39,12.39,0,0,0,3.33-1.77,2.38,2.38,0,0,0-.15-4.17,5.44,5.44,0,0,0-5.83-.25c-2.9,1.48-4.48,4.06-5.37,7.12C110.84,28,111,28.17,111.56,28.06Z"/><path class="cls-1" d="M44.81,34.52c.88-2,1.66-3.87,2.48-5.69,1.61-3.57,3.25-7.14,4.88-10.71a1.49,1.49,0,0,1,2.67-.18c.26.38,0,.71-.12,1-1,2.14-2,4.27-3,6.42-2,4.34-4,8.69-5.94,13-.25.55-.41,1.3-1.21,1.28s-.86-.78-1.06-1.33c-1.39-3.72-3-7.34-4.7-10.94-1.21-2.61-2.38-5.24-3.55-7.87-.4-.91-.23-1.29.63-1.68s1.38-.29,1.77.58q2.65,5.87,5.27,11.75C43.53,31.59,44.12,33,44.81,34.52Z"/><path class="cls-1" d="M61.84,28.33q0,5,0,10c0,.51,0,1-.58,1.22a2.17,2.17,0,0,1-1.91-.06c-.39-.21-.28-.64-.28-1q0-8.31,0-16.62c0-1.12,0-2.24,0-3.36,0-.52.07-1,.61-1.22a2.09,2.09,0,0,1,1.84-.08c.4.2.32.62.32,1Z"/><path class="cls-1" d="M62.09,13.2a1.62,1.62,0,0,1-1.56,1.61,1.71,1.71,0,0,1-1.64-1.64,1.6,1.6,0,1,1,3.2,0Z"/></g></g></svg>