<svg xmlns="http://www.w3.org/2000/svg" viewBox="0 0 117.41 117.41"><defs><style>.cls-1{fill:#e9f8ff;}</style></defs><g id="Layer_2" data-name="Layer 2"><g id="_8" data-name="#8"><path class="cls-1" d="M58.71,117.41a58.71,58.71,0,1,1,58.7-58.7A58.77,58.77,0,0,1,58.71,117.41ZM58.71,4a54.71,54.71,0,1,0,54.7,54.71A54.77,54.77,0,0,0,58.71,4Z"/><path class="cls-1" d="M55.56,42.38,67.81,77.12h-7.9L57.4,68.88H44.79l-2.51,8.24H34.37L46.59,42.38h9M46.63,62.73h9l-2.51-8c-.16-.55-.37-1.24-.63-2.08S52,50.91,51.73,50s-.46-1.64-.63-2.28c-.15.64-.37,1.45-.65,2.4s-.54,1.86-.79,2.71l-.54,1.83-2.49,8M57,40.38H45.17l-.47,1.33L32.48,76.46l-.93,2.66H43.76l.43-1.42,2.08-6.82h9.65L58,77.7l.43,1.42H70.64l-.94-2.66L57.44,41.71,57,40.38ZM49.34,60.73,51,55.28l.1-.34c0,.1.06.2.08.29v.05l1.7,5.45Z"/><path class="cls-1" d="M83,40.29V77.12H75.82V40.29H83m2-2H73.82V79.12H85V38.29Z"/><rect class="cls-1" x="6" y="60.37" width="112.92" height="4" transform="translate(-25.8 63.47) rotate(-45.67)"/></g></g></svg>