<svg xmlns="http://www.w3.org/2000/svg" viewBox="0 0 117.41 117.41"><defs><style>.cls-1{fill:#e9f8ff;}</style></defs><g id="Layer_2" data-name="Layer 2"><g id="_8" data-name="#8"><path class="cls-1" d="M58.71,117.41a58.71,58.71,0,1,1,58.7-58.7A58.77,58.77,0,0,1,58.71,117.41ZM58.71,4a54.71,54.71,0,1,0,54.7,54.71A54.77,54.77,0,0,0,58.71,4Z"/><path class="cls-1" d="M85.86,68.39a11.17,11.17,0,0,0-8-.53,66.57,66.57,0,0,0-7.5,2.74c-.43.18-.55.12-.61-.36a3.85,3.85,0,0,0-3.34-3.59,16.85,16.85,0,0,0-5.06-.14,5.51,5.51,0,0,1-4.28-1.3,13,13,0,0,0-9.85-2.89,24.74,24.74,0,0,1-6.14,0c-.47-.08-.83-.21-1-.73a11.21,11.21,0,0,0-.58-1.28,4.11,4.11,0,0,0-2.93-2.33,16.78,16.78,0,0,0-5-.26,4,4,0,0,0-1.36.33,1.47,1.47,0,0,0-1,1.47c0,3.74,0,7.49,0,10.2,0,4.57.05,8.11-.08,11.65a8,8,0,0,0,.06,1.47,1.47,1.47,0,0,0,1.31,1.4,16.79,16.79,0,0,0,2.92.28c3.1.11,5.53-.93,6.78-4,.12-.31.27-.4.63-.3,1.23.34,2.44.75,3.63,1.21,2.53,1,5,2.21,7.52,3.18a17.16,17.16,0,0,0,14.52-.67c7.18-3.72,14.28-7.61,21.42-11.42a.59.59,0,0,0,.35-.66A3.88,3.88,0,0,0,85.86,68.39ZM40.29,65.15c0-.4.07-.53.5-.55a43.46,43.46,0,0,1,9.74.27,9.39,9.39,0,0,1,5.74,2.95,3.26,3.26,0,0,0,2.37.88c1.84.17,3.69.11,5.53.12a8,8,0,0,1,2,.2,1.41,1.41,0,0,1,1.2,1.25,1.65,1.65,0,0,1-.82,1.83,6.69,6.69,0,0,1-2.89.67c-1.8.12-3.61,0-5.41,0l-6.38-.15a4.24,4.24,0,0,0-.62,0,1.53,1.53,0,0,0-1.32,1.86c.07.27.36.28.56.31.75.1,1.5.19,2.25.23,2.1.1,4.21.15,6,.12,2.39,0,4.52,0,6.65-.1a4.19,4.19,0,0,0,1.31-.27c3.77-1.44,7.53-2.89,11.31-4.31a8.09,8.09,0,0,1,5.07-.52,5.56,5.56,0,0,1,1.84,1c.29.21.3.34,0,.55A37.87,37.87,0,0,1,81,73.64c-4.62,2.22-9.06,4.78-13.57,7.21a22.64,22.64,0,0,1-5.78,2.32,14.77,14.77,0,0,1-8.37-.77C49.54,81,45.79,79.49,42,78l-.79-.28c-1-.32-1-.32-1-1.3C40.28,72.68,40.3,68.92,40.29,65.15ZM37.9,76.75a17.24,17.24,0,0,1-.07,2.59c-.19,1.63-.76,2.24-2.41,2.44a24,24,0,0,1-3.5,0c-.43,0-.29-.3-.29-.51q0-4.58,0-9.15V71h0V61c0-.8,0-.79.78-.84a15.2,15.2,0,0,1,3.09,0,2.36,2.36,0,0,1,2.28,2.41,33.34,33.34,0,0,1,.09,4.12C37.77,70.09,37.8,73.42,37.9,76.75Z"/><path class="cls-1" d="M76.16,44.73a45,45,0,0,0-8.47-11.95c-1.57-1.57-1.42-1.78-3.19,0a50,50,0,0,0-8.56,11.83,8.58,8.58,0,0,0-.8,5.5A11.17,11.17,0,0,0,66,59.34,11.37,11.37,0,0,0,73,56.84C76.87,53.77,78.23,48.94,76.16,44.73Zm-13.94-6a29.87,29.87,0,0,0,3.27-4.17.34.34,0,0,1,.5-.16,1.66,1.66,0,0,1,.86.51c1.31,1.91,3,3.55,4.3,5.43a27.45,27.45,0,0,1,3,4.77c2.89,6.33-2.35,12.27-8,12.28a9.23,9.23,0,0,1-9-7.57A8.78,8.78,0,0,1,58,44.91,25.12,25.12,0,0,1,62.22,38.7Z"/><path class="cls-1" d="M64.93,55.94a3,3,0,0,0,1.24,0,.89.89,0,0,0,.5-1.53,1.43,1.43,0,0,0-1-.53,4.58,4.58,0,0,1-1.05-.14,5.25,5.25,0,0,1-3.73-4.19,2.39,2.39,0,0,0-.78-1.45c-.58-.48-.6-.48-1,.17a2.25,2.25,0,0,0-.31,1.29,7.71,7.71,0,0,0,.1.84A7.8,7.8,0,0,0,64.93,55.94Z"/></g></g></svg>