<svg xmlns="http://www.w3.org/2000/svg" viewBox="0 0 270.35 270.35"><defs><style>.cls-1{fill:#3ac7db;}.cls-2{fill:#e9f8ff;}</style></defs><g id="Layer_2" data-name="Layer 2"><g id="_6" data-name="#6"><rect class="cls-1" width="270.35" height="270.35" rx="44.15"/><path class="cls-2" d="M189.07,81.75a11.59,11.59,0,1,1,11.59-11.59A11.6,11.6,0,0,1,189.07,81.75Zm0-19.12a7.53,7.53,0,1,0,7.53,7.53A7.53,7.53,0,0,0,189.07,62.63Z"/><path class="cls-2" d="M166.42,91.44a9.39,9.39,0,1,1,9.39-9.39A9.4,9.4,0,0,1,166.42,91.44Zm0-14.71a5.33,5.33,0,1,0,5.33,5.32A5.33,5.33,0,0,0,166.42,76.73Z"/><path class="cls-2" d="M69.36,153.88a15.13,15.13,0,1,1,15.13-15.13A15.14,15.14,0,0,1,69.36,153.88Zm0-26.19a11.07,11.07,0,1,0,11.07,11.06A11.07,11.07,0,0,0,69.36,127.69Z"/><path class="cls-2" d="M133.65,89.39a15.13,15.13,0,1,1,15.13-15.13A15.14,15.14,0,0,1,133.65,89.39Zm0-26.19a11.07,11.07,0,1,0,11.07,11.06A11.07,11.07,0,0,0,133.65,63.2Z"/><path class="cls-2" d="M99.08,122a16.26,16.26,0,1,1,16.27-16.26A16.28,16.28,0,0,1,99.08,122Zm0-28.46a12.2,12.2,0,1,0,12.2,12.2A12.22,12.22,0,0,0,99.08,93.51Z"/><path class="cls-2" d="M74.19,91.42A12.82,12.82,0,1,1,87,78.6,12.83,12.83,0,0,1,74.19,91.42Zm0-21.57A8.76,8.76,0,1,0,83,78.6,8.77,8.77,0,0,0,74.19,69.85Z"/><path class="cls-2" d="M127.45,144.92a12.82,12.82,0,1,1,12.81-12.81A12.82,12.82,0,0,1,127.45,144.92Zm0-21.56a8.75,8.75,0,1,0,8.75,8.75A8.76,8.76,0,0,0,127.45,123.36Z"/><rect class="cls-2" x="107.7" y="88.33" width="19.49" height="4.06" transform="translate(-29.48 109.6) rotate(-45.04)"/><rect class="cls-2" x="75.91" y="121.12" width="17.56" height="4.06" transform="translate(-62.29 96.05) rotate(-45.03)"/><rect class="cls-2" x="112.71" y="112.9" width="4.06" height="13.81" transform="translate(-51.08 114.95) rotate(-44.56)"/><rect class="cls-2" x="83.96" y="84.56" width="4.06" height="12.09" transform="translate(-38.86 86.38) rotate(-44.56)"/><rect class="cls-2" x="139.79" y="96.79" width="36.92" height="4.06" rx="2.03"/><path class="cls-2" d="M196,211.79H120.24a7.54,7.54,0,0,1-6.65-11.08l32-60V96.79h25v43.9l32,60A7.54,7.54,0,0,1,196,211.79ZM149.68,100.85V141.7l-32.5,60.92a3.47,3.47,0,0,0,3.06,5.11H196a3.47,3.47,0,0,0,3.06-5.11l-32.5-60.92V100.85Z"/><path class="cls-2" d="M158.59,179.07a43.09,43.09,0,0,1-10.72-1.37,46.69,46.69,0,0,1-16.09-7.52l2.51-3.19A43.59,43.59,0,0,0,149,173.8c11.66,2.94,22.75.64,33-6.85l2.4,3.27C175.19,177,166.2,179.07,158.59,179.07Z"/></g></g></svg>