<svg xmlns="http://www.w3.org/2000/svg" viewBox="0 0 85.69 14.81"><defs><style>.cls-1{fill:#ed0a9c;}</style></defs><g id="Layer_2" data-name="Layer 2"><g id="_7" data-name="#7"><polygon class="cls-1" points="7.78 0 9.62 5.66 15.57 5.66 10.76 9.15 12.6 14.81 7.78 11.31 2.97 14.81 4.81 9.15 0 5.66 5.95 5.66 7.78 0"/><polygon class="cls-1" points="25.31 0 27.15 5.66 33.1 5.66 28.29 9.15 30.12 14.81 25.31 11.31 20.5 14.81 22.34 9.15 17.53 5.66 23.48 5.66 25.31 0"/><polygon class="cls-1" points="42.84 0 44.68 5.66 50.63 5.66 45.82 9.15 47.65 14.81 42.84 11.31 38.03 14.81 39.87 9.15 35.06 5.66 41.01 5.66 42.84 0"/><polygon class="cls-1" points="60.37 0 62.21 5.66 68.16 5.66 63.35 9.15 65.18 14.81 60.37 11.31 55.56 14.81 57.4 9.15 52.59 5.66 58.53 5.66 60.37 0"/><polygon class="cls-1" points="77.9 0 79.74 5.66 85.69 5.66 80.88 9.15 82.71 14.81 77.9 11.31 73.09 14.81 74.93 9.15 70.12 5.66 76.06 5.66 77.9 0"/></g></g></svg>