<svg xmlns="http://www.w3.org/2000/svg" viewBox="0 0 117.41 117.41"><defs><style>.cls-1{fill:#666cfe;}</style>
</defs>
<g id="Layer_2" data-name="Layer 2"><g id="_8" data-name="#8">
<path class="cls-1" d="M58.71,117.41a58.71,58.71,0,1,1,58.7-58.7A58.77,58.77,0,0,1,58.71,117.41ZM58.71,4a54.71,54.71,0,1,0,54.7,54.71A54.77,54.77,0,0,0,58.71,4Z"/><path class="cls-1" d="M93.51,44.43a.08.08,0,0,0,0,.07,10,10,0,0,1-1.72,4.74,12.53,12.53,0,0,1-5.32,4.56.28.28,0,0,0-.19.29,4,4,0,0,1-.85,2.24,5.78,5.78,0,0,1-2.56,1.91,6.69,6.69,0,0,1-2.72.49,5.39,5.39,0,0,1-2.82-.85,3.56,3.56,0,0,1-1.22-4.73A5.29,5.29,0,0,1,78.16,51a6.72,6.72,0,0,1,3.64-.92,5.35,5.35,0,0,1,2.84.89,3.63,3.63,0,0,1,1,1c.06.09.1.12.21.07a10.55,10.55,0,0,0,5.42-5.94,7.23,7.23,0,0,0,.45-2.39,4.12,4.12,0,0,0-1.56-3.32,5,5,0,0,0-3.79-1.11,5.26,5.26,0,0,0-3.49,1.88,19.44,19.44,0,0,1-3.58,3.2,24.3,24.3,0,0,1-6,3,.29.29,0,0,0-.22.26,6.38,6.38,0,0,1-.66,1.73C72,50.21,71.46,51,71,51.75c-1,1.54-2,3.08-2.89,4.69a37.06,37.06,0,0,0-2.42,5.19,17.2,17.2,0,0,0-.83,3.15,10.36,10.36,0,0,0,.31,4.63c.12.4.26.8.37,1.2a8.08,8.08,0,0,1,.21,1.9,24.49,24.49,0,0,1-.2,3.21A77.41,77.41,0,0,1,64,84.14c-.18.8-.4,1.58-.57,2.37a1.05,1.05,0,0,1-.66.82v0h-.52s0,0,0,0a.92.92,0,0,1-.57-1.19c.13-.48.25-1,.36-1.46a3.66,3.66,0,0,0,.15-.69H60.25c-.33,0-.65,0-1,0a1,1,0,0,1-1-.66,1.06,1.06,0,0,1,.24-1.16,1.08,1.08,0,0,1,.8-.31h3c.22,0,.22,0,.27-.22L63,79.78a2.33,2.33,0,0,0,.08-.46.62.62,0,0,0-.23,0H60c-.57,0-1.14,0-1.71,0A1.06,1.06,0,0,1,58,77.22a1.38,1.38,0,0,1,.45,0h4.93c.15,0,.15,0,.18-.17.12-.76.21-1.52.29-2.29a.86.86,0,0,0,0-.32H57.49a1,1,0,0,1-1.05-.91,1.07,1.07,0,0,1,.68-1.15,1.39,1.39,0,0,1,.49-.07h6a.75.75,0,0,1,.15,0c.12,0,.14-.05.13-.14s0-.39-.06-.58a7.22,7.22,0,0,0-.35-1.31,13.24,13.24,0,0,1-.61-4,14,14,0,0,1,.57-3.75,27.52,27.52,0,0,1,1.94-4.86,59.37,59.37,0,0,1,3.67-6.32c.54-.81,1.08-1.62,1.56-2.46a6,6,0,0,0,.6-1.34,1.64,1.64,0,0,0,.09-.76,1.78,1.78,0,0,0-.43-.93,5.91,5.91,0,0,0-1.08-1,20,20,0,0,0-2.75-1.62,22.09,22.09,0,0,0-6.47-2,12.17,12.17,0,0,0-1.81-.16,14.6,14.6,0,0,0-2.64.28,22.49,22.49,0,0,0-7.61,3A9.82,9.82,0,0,0,47,45.4a3.56,3.56,0,0,0-.63.71,1.55,1.55,0,0,0-.24,1,3.54,3.54,0,0,0,.33,1.06,15.3,15.3,0,0,0,1,1.8c.76,1.19,1.56,2.36,2.29,3.58A46,46,0,0,1,53.11,60a18.25,18.25,0,0,1,1.39,5.17,12,12,0,0,1,0,2.68,13.93,13.93,0,0,1-.63,2.7,6.52,6.52,0,0,0-.31,1.91,21,21,0,0,0,.14,2.63c.1,1,.25,2,.41,3,.28,1.67.62,3.32,1,5,.23,1.07.49,2.13.76,3.19a.9.9,0,0,1-.53,1.08s-.08,0-.09.06H54.7s0,0-.06,0a.94.94,0,0,1-.57-.67c-.35-1.37-.67-2.75-1-4.13s-.54-2.62-.77-3.94a45.33,45.33,0,0,1-.56-4.5,15.1,15.1,0,0,1,0-2.69,5.92,5.92,0,0,1,.26-1.18,12.5,12.5,0,0,0,.58-2.32,10,10,0,0,0,0-2.56,18.39,18.39,0,0,0-1.51-5.2,48.5,48.5,0,0,0-3.64-6.73c-.68-1.06-1.39-2.09-2-3.16a11.1,11.1,0,0,1-.94-1.89,3.16,3.16,0,0,1-.18-.67.28.28,0,0,0-.21-.25,23.06,23.06,0,0,1-2.78-1.12,21.85,21.85,0,0,1-5.74-3.91c-.39-.38-.76-.77-1.11-1.18a5.18,5.18,0,0,0-2.48-1.66,4.92,4.92,0,0,0-5.26,1.35,4,4,0,0,0-1.08,3.25,9.28,9.28,0,0,0,2.71,5.65,10.9,10.9,0,0,0,3,2.23l.16.07a.07.07,0,0,0,.12,0l0,0a4.21,4.21,0,0,1,2.42-1.69,6.53,6.53,0,0,1,6.56,1.9,4.15,4.15,0,0,1,1,2,3.41,3.41,0,0,1-1.1,3.26,4.31,4.31,0,0,1-2.24,1.1,6.45,6.45,0,0,1-5.57-1.43,4.41,4.41,0,0,1-1.52-2.35,3.24,3.24,0,0,1-.11-.75.24.24,0,0,0-.17-.25,12.94,12.94,0,0,1-4.91-4A10.84,10.84,0,0,1,24,45.1c-.05-.24-.07-.48-.11-.73,0-.06,0-.2,0-.23v-.75c0-.23,0-.46.08-.69a6.08,6.08,0,0,1,2.87-4.19,7,7,0,0,1,3.25-1h.78a7.77,7.77,0,0,1,1.43.24A7.39,7.39,0,0,1,36,40.07a15.27,15.27,0,0,0,2,2,22,22,0,0,0,6.47,3.57s.07,0,.12,0a4,4,0,0,1,.44-.74,6.46,6.46,0,0,1,1.44-1.37,21.05,21.05,0,0,1,3.4-2,23.12,23.12,0,0,1,6.75-2.09,13.62,13.62,0,0,1,2.21-.17,16.51,16.51,0,0,1,3.36.41,24.1,24.1,0,0,1,7.39,2.93,12.73,12.73,0,0,1,2,1.46,4.65,4.65,0,0,1,1.19,1.52l.05.07.17-.05a23,23,0,0,0,4.38-2.12A17.58,17.58,0,0,0,81.57,40a4.57,4.57,0,0,1,.43-.45,7.15,7.15,0,0,1,4.55-2.05h.78c.23,0,.46.05.68.09a6.64,6.64,0,0,1,3.63,1.76A5.76,5.76,0,0,1,93.47,43s0,.08,0,.1ZM37.1,56.93a4.46,4.46,0,0,0,1.09-.14,2.69,2.69,0,0,0,1.27-.69,1.62,1.62,0,0,0,.5-1.51,2.23,2.23,0,0,0-.33-.83,3.36,3.36,0,0,0-.88-.92A4.78,4.78,0,0,0,35,52a2.77,2.77,0,0,0-1.47.75A1.59,1.59,0,0,0,33,54.29a2.62,2.62,0,0,0,.82,1.37A4.8,4.8,0,0,0,37.1,56.93Zm44.37-5a3.86,3.86,0,0,0-.83.09,4.53,4.53,0,0,0-2.34,1.17,2.76,2.76,0,0,0-.76,1.14A1.65,1.65,0,0,0,78,56.09a2.55,2.55,0,0,0,.91.57,4.19,4.19,0,0,0,2.35.17,4.62,4.62,0,0,0,2.27-1.08,2.86,2.86,0,0,0,.87-1.32A1.64,1.64,0,0,0,84,52.82a2.49,2.49,0,0,0-.71-.53A3.93,3.93,0,0,0,81.47,51.91Z"/><path class="cls-1" d="M58.79,46.05a11.66,11.66,0,0,1,5.48,1.41l.39.23a.91.91,0,0,1,.38,1,1.88,1.88,0,0,1-.12.3q-2.61,5.74-5.23,11.48c-.06.13-.11.26-.18.39a.81.81,0,0,1-.83.47.82.82,0,0,1-.78-.54c-.19-.44-.37-.88-.55-1.31q-2.24-5.33-4.45-10.65a.89.89,0,0,1,.38-1.21,10.1,10.1,0,0,1,5.51-1.61ZM63,48.88a.31.31,0,0,0-.12-.09,10,10,0,0,0-3.7-.93,8.21,8.21,0,0,0-4.15.88l-.13.06c-.06,0-.06.07,0,.13a1,1,0,0,1,0,.1l3.77,9s0,.09.09.13Z"/></g></g></svg>