<svg xmlns="http://www.w3.org/2000/svg" viewBox="0 0 4.74 4.74"><defs><style>.cls-1{fill:#e9f8ff;}</style></defs><g id="Layer_2" data-name="Layer 2"><g id="_1" data-name="#1"><path class="cls-1" d="M2.37,4.3A1.65,1.65,0,0,1,1.1,3.81a.91.91,0,0,1-.2-.76.74.74,0,0,1,.83-.63H3a.75.75,0,0,1,.82.63.91.91,0,0,1-.2.76A1.65,1.65,0,0,1,2.37,4.3ZM1.69,2.62a.57.57,0,0,0-.6.47.75.75,0,0,0,.16.59,1.45,1.45,0,0,0,1.12.42,1.45,1.45,0,0,0,1.12-.42.71.71,0,0,0,.16-.59h0A.57.57,0,0,0,3,2.62H1.69Z"/><path class="cls-1" d="M2.37,2.32a.88.88,0,0,1,0-1.75.88.88,0,1,1,0,1.75Zm0-1.55a.68.68,0,1,0,.68.68A.68.68,0,0,0,2.37.77Z"/><path class="cls-1" d="M2.37,4.74A2.37,2.37,0,1,1,4.74,2.37,2.37,2.37,0,0,1,2.37,4.74ZM2.37.2A2.17,2.17,0,1,0,4.54,2.37,2.17,2.17,0,0,0,2.37.2Z"/></g></g></svg>