<svg xmlns="http://www.w3.org/2000/svg" viewBox="0 0 117.41 117.41"><defs><style>.cls-1{fill:#666cfe;}</style></defs><g id="Layer_2" data-name="Layer 2"><g id="_8" data-name="#8"><path class="cls-1" d="M58.71,117.41a58.71,58.71,0,1,1,58.7-58.7A58.77,58.77,0,0,1,58.71,117.41ZM58.71,4a54.71,54.71,0,1,0,54.7,54.71A54.77,54.77,0,0,0,58.71,4Z"/><path class="cls-1" d="M85.16,33.62l-3.58-2.26a3,3,0,0,0-4.07.91l-7.7,12.19L62.43,30.85a4.7,4.7,0,0,0-1.72-1.79,4.7,4.7,0,0,0-6.51,1.79L39.66,57.65a21.23,21.23,0,1,0,37.31,0l-1.62-3,10.73-17A3,3,0,0,0,85.16,33.62ZM74.49,77.4A18.82,18.82,0,0,1,41.78,58.79L56.32,32a2.28,2.28,0,0,1,4,0l8,14.79L60.29,59.53,57.46,52a2.94,2.94,0,0,0-3.8-1.72l-4,1.5A3,3,0,0,0,48,55.62l7.91,21a2.93,2.93,0,0,0,2.46,1.89l.31,0a2.93,2.93,0,0,0,2.49-1.38L73.88,57l1,1.8A18.68,18.68,0,0,1,74.49,77.4Zm-1.19-24-.74,1.17L59.11,75.85a.54.54,0,0,1-1-.1l-7.92-21a.52.52,0,0,1,0-.42.55.55,0,0,1,.3-.28l4-1.5a.63.63,0,0,1,.19,0,.54.54,0,0,1,.51.35l4.53,12,9.91-15.69.74-1.16.74-1.17,8.42-13.32a.54.54,0,0,1,.34-.24.53.53,0,0,1,.4.07l3.58,2.27a.53.53,0,0,1,.17.74L74,52.24Z"/></g></g></svg>