<svg xmlns="http://www.w3.org/2000/svg" viewBox="0 0 117.41 117.41">
  <defs>
    <style>
      .cls-1 {
        fill: #666cfe;
      }
    </style>
  </defs>
  <g id="Layer_2" data-name="Layer 2">
    <g id="_8" data-name="#8">
      <path class="cls-1" d="M58.71,117.41a58.71,58.71,0,1,1,58.7-58.7A58.77,58.77,0,0,1,58.71,117.41ZM58.71,4a54.71,54.71,0,1,0,54.7,54.71A54.77,54.77,0,0,0,58.71,4Z"/>
      <path class="cls-1" d="M75.68,85.79a68.87,68.87,0,0,1-12.26-1.2C61.92,84,60,83.34,59.8,81.46a2.4,2.4,0,0,1,.87-2.1A8.19,8.19,0,0,0,58,77.63a.8.8,0,0,0-1,.28c-1.6,2.25-4.75,6.19-7.87,7.24-4.18,1.4-7.71-.33-8.67-1.57A2.19,2.19,0,0,1,40,81.76c.32-1.65,2.42-3,4.35-4.1l.19-.11a10.5,10.5,0,0,1,.53-3.3.12.12,0,0,0,0-.13C39.21,69.2,38.81,61,39.23,59.23A1.75,1.75,0,0,0,38.05,57a5,5,0,0,1-3.72-2.91c-.24-.5-.32-.63-.55-.72A3,3,0,0,1,32,51.24a2.61,2.61,0,0,1,.94-2.41,6.1,6.1,0,0,0,.88-1.92,11.88,11.88,0,0,1,4.05-6.26,7.08,7.08,0,0,1,2.56-1.29c0-.29,0-.75,0-1.27,0-.69,0-1.63,0-2.88a17.47,17.47,0,0,1,4.27-11.54A1.59,1.59,0,0,1,46,23.15a1.55,1.55,0,0,1,1.21.7,15.51,15.51,0,0,1,1.64,5.64c4.8-4.45,9-4.2,10.65-4.1h.23a1.24,1.24,0,0,1,1.13.84c.66,1.91-4.28,9-6.69,11.05-3.09,2.7-3.66,4.34-2.27,6.52a6.31,6.31,0,0,1,.81,3,4.9,4.9,0,0,0,1.82,4c1.32,1.1,2.31,1.2,4.1,1.38,2.59.26,6.51.65,14.11,4.54C84.88,63,84.93,76.82,84.8,79.62c1.13,1.93.62,3.23,0,4C83.39,85.28,79.65,85.79,75.68,85.79Zm-18-10.22a2.79,2.79,0,0,1,1.09.22,9.54,9.54,0,0,1,3.61,2.46A1.78,1.78,0,0,1,62,80.83c-.27.19-.25.35-.25.44.07.62,1.26,1.06,2.22,1.41,1.85.54,17.09,2.4,19.27-.39.12-.16.44-.56-.22-1.69h0a2,2,0,0,1-.26-1c.07-1.54.36-15.21-11-21-7.27-3.72-11-4.09-13.39-4.33a8.17,8.17,0,0,1-5.19-1.84A6.87,6.87,0,0,1,50.69,47a4.53,4.53,0,0,0-.5-2.11c-2.44-3.84-.17-6.65,2.65-9.1a29.54,29.54,0,0,0,5.91-8.43c-1.78-.05-5.32.24-9.3,4.32A1.44,1.44,0,0,1,47,30.84a20.36,20.36,0,0,0-1.2-5.4,15.57,15.57,0,0,0-3.39,9.79c0,1.23,0,2.15,0,2.84,0,2.08,0,2.85-1.4,3.2a5,5,0,0,0-2,1,10.18,10.18,0,0,0-3.35,5.3,6.52,6.52,0,0,1-1.42,2.76c-.35.32-.32.52-.31.58a1,1,0,0,0,.59.65,3,3,0,0,1,1.59,1.69c.34.71.67,1.38,2.45,1.86a3.75,3.75,0,0,1,2.6,4.6c-.18.72-.2,8.38,5.18,12.88A2.12,2.12,0,0,1,47,74.84a8.93,8.93,0,0,0-.43,2.77,1.75,1.75,0,0,1-.86,1.59l-.33.19c-.79.46-3.22,1.86-3.39,2.75a.23.23,0,0,0,.07.22,6.63,6.63,0,0,0,6.45.89c2.67-.89,5.69-4.84,6.87-6.5A2.78,2.78,0,0,1,57.66,75.57Zm2-48.17h0Z"/>
    </g>
  </g>
</svg>