<svg xmlns="http://www.w3.org/2000/svg" viewBox="0 0 117.41 117.41"><defs><style>.cls-1{fill:#e9f8ff;}</style></defs><g id="Layer_2" data-name="Layer 2"><g id="_8" data-name="#8"><path class="cls-1" d="M58.71,117.41a58.71,58.71,0,1,1,58.7-58.7A58.77,58.77,0,0,1,58.71,117.41ZM58.71,4a54.71,54.71,0,1,0,54.7,54.71A54.77,54.77,0,0,0,58.71,4Z"/><path class="cls-1" d="M86.27,41.28l-.55-1.61-1.72.2c-1.38.18-13.61,2-21.54,10.72-1-2.32-6.56-13.44-25.32-20.12l-1.73-.62-.86,1.63c-.44.83-10.74,20.54-4.6,35.8,5.34,13.28,19.83,18.26,24.14,19.48a15,15,0,0,0,2.14.41l2.84.28.84,0c.57,0,1.14,0,1.72-.08l1.79-.29C64,87,78.28,84.75,85.48,72.84,90.44,64.63,90.7,54,86.27,41.28Zm-9,12c-9.07,9.09-13.93,20.76-16,26.91-.32.91-.55,1.66-.72,2.22-.28-.85-.55-1.73-.8-2.64C57,69.77,57.84,61.43,62.18,55c6.66-9.9,19.7-12.26,21.84-12.59,4,11.77,3.84,21.53-.59,29-5.8,9.79-17,12.57-19.78,13.12l.19-.57a177.66,177.66,0,0,1,14-30.21l1.54-2.59ZM56.49,77.82c-7.26-9.38-14.3-30.08-14.37-30.29l-1-3.07.31,3.22C43.24,67.07,54.75,80.9,58,84.48c-4.57-1.14-20.86-6-25.76-18.13C27,53.12,35.37,35.41,36.6,32.94,54.34,39.36,59.85,51,60.55,52.65,53.63,61.4,55.5,73.46,56.49,77.82Z"/></g></g></svg>