<svg xmlns="http://www.w3.org/2000/svg" viewBox="0 0 6.64 5.31"><defs><style>.cls-1{fill:#e9f8ff;}.cls-2{fill:#f20a9c;}</style></defs><g id="Layer_2" data-name="Layer 2"><g id="_1" data-name="#1"><path class="cls-1" d="M2.32,0h.22a1.06,1.06,0,0,1,.59.24,1.1,1.1,0,0,1,.44.84c0,.16,0,.33,0,.5,0,0,0,0,0,0h.88a.12.12,0,0,1,.13.13c0,.1,0,.21,0,.31l.06,1,.07,1.09c0,.33,0,.67.07,1,0,0,0,0,0,0v.06a.15.15,0,0,1-.16.09H.12A.12.12,0,0,1,0,5.18a.28.28,0,0,1,0-.09L.07,4.2c0-.24,0-.49,0-.73l.06-.89.06-.84c0-.09,0-.13.14-.13h.86s0,0,0,0V1.17a1.15,1.15,0,0,1,0-.19A1.2,1.2,0,0,1,1.56.39,1.1,1.1,0,0,1,2.21,0Zm.09,5.08H4.56a0,0,0,0,0,0,0c0-.26,0-.52,0-.78s0-.51,0-.76,0-.61,0-.91,0-.49-.05-.73c0,0,0,0,0,0H3.59s0,0,0,0v.21a.05.05,0,0,0,0,0,.23.23,0,0,1,.1.23.24.24,0,0,1-.21.19.23.23,0,0,1-.24-.15.24.24,0,0,1,.09-.27,0,0,0,0,0,0,0V1.87s0,0,0,0H1.52s0,0,0,0v.21s0,0,0,0a.24.24,0,0,1,.09.22.23.23,0,0,1-.2.2.22.22,0,0,1-.24-.15.22.22,0,0,1,.08-.27s0,0,0,0V1.87s0,0,0,0H.48s0,0,0,0,0,.26,0,.39l0,.52c0,.21,0,.41,0,.62s0,.34,0,.51,0,.41,0,.62l0,.53s0,0,0,0Zm0-3.47h.9s0,0,0,0V1.16a.92.92,0,0,0,0-.29A.93.93,0,0,0,1.91.38a.9.9,0,0,0-.41.71c0,.17,0,.33,0,.5,0,0,0,0,0,0Z"/><circle class="cls-2" cx="5.29" cy="1.72" r="1.35"/></g></g></svg>